<svg width="163" height="56" viewBox="0 0 163 56" fill="none" xmlns="http://www.w3.org/2000/svg">
<path d="M10.4125 27.9716C7.51283 23.2827 5.96082 17.7348 7.00389 12.1139C7.35972 10.1966 8.89817 8.7071 10.8245 8.40373C12.548 8.13214 13.7938 7.99608 16.235 8.19893C15.3552 9.65947 14.8348 11.1161 14.2874 12.5318C13.0681 12.4875 11.826 12.7315 11.4325 12.8528C10.4418 16.5148 11.7203 22.7845 15.5827 27.9716H10.4125Z" fill="#2058BB"/>
<path d="M15.139 16.5599C16.4042 11.194 19.2298 6.17348 23.9419 2.9365C25.5494 1.83231 27.6904 1.86707 29.2671 3.01454C30.6778 4.0412 31.6548 4.826 33.2377 6.6956C31.5829 7.10621 30.1847 7.76826 28.7967 8.38237C27.9658 7.48879 26.9151 6.78294 26.551 6.59055C23.261 8.4794 19.7316 13.817 18.795 20.2159L15.139 16.5599Z" fill="#2058BB"/>
<path d="M26.5508 11.833C31.2397 8.93335 36.7876 7.3812 42.4085 8.42428C44.3259 8.78011 45.8153 10.3186 46.1188 12.2449C46.3902 13.9683 46.5263 15.2141 46.3235 17.6555C44.863 16.7757 43.4063 16.2553 41.9907 15.7078C42.0348 14.4887 41.791 13.2465 41.6696 12.853C38.0075 11.8623 31.7377 13.1408 26.5508 17.0032V11.833Z" fill="#2058BB"/>
<path d="M37.9629 16.5596C43.3288 17.8248 48.3492 20.6503 51.5862 25.3625C52.6905 26.9698 52.6558 29.1109 51.5083 30.6877C50.4816 32.0984 49.6968 33.0754 47.8272 34.6583C47.4165 33.0035 46.7546 31.6053 46.1404 30.2173C47.034 29.3864 47.7397 28.3357 47.9323 27.9716C46.0433 24.6815 40.7058 21.1522 34.3069 20.2156L37.9629 16.5596Z" fill="#2058BB"/>
<path d="M42.6901 27.9711C45.5897 32.66 47.1417 38.2079 46.0986 43.8289C45.7428 45.7463 44.2044 47.2356 42.278 47.5391C40.5546 47.8106 39.3088 47.9468 36.8676 47.7438C37.7472 46.2834 38.2676 44.8267 38.8151 43.4109C40.0344 43.4552 41.2766 43.2113 41.67 43.0901C42.6606 39.4279 41.3823 33.1582 37.5197 27.9711H42.6901Z" fill="#2058BB"/>
<path d="M37.9631 39.3835C36.6977 44.7494 33.8723 49.7698 29.16 53.0067C27.5527 54.111 25.4117 54.0763 23.835 52.9288C22.4243 51.9022 21.4473 51.1174 19.8644 49.2478C21.5192 48.837 22.9172 48.1751 24.3053 47.561C25.1363 48.4544 26.187 49.1603 26.5511 49.3528C29.8411 47.4638 33.3705 42.1264 34.3071 35.7275L37.9631 39.3835Z" fill="#2058BB"/>
<path d="M26.551 44.1104C21.862 47.01 16.3142 48.562 10.6933 47.5191C8.77586 47.1633 7.28651 45.6248 6.98301 43.6985C6.71155 41.975 6.57537 40.7291 6.77822 38.2879C8.23889 39.1677 9.69542 39.6881 11.1111 40.2354C11.0669 41.4547 11.3109 42.6969 11.4322 43.0903C15.0943 44.0811 21.3639 42.8026 26.551 38.94V44.1104Z" fill="#2058BB"/>
<path d="M15.1395 39.3835C9.77358 38.1184 4.75318 35.2929 1.51607 30.5807C0.411884 28.9733 0.446641 26.8321 1.59424 25.2555C2.62078 23.8448 3.40557 22.8677 5.2753 21.2849C5.68591 22.9397 6.34783 24.3378 6.96194 25.7259C6.06836 26.5568 5.36264 27.6075 5.17013 27.9716C7.05898 31.2617 12.3966 34.7909 18.7955 35.7275L15.1395 39.3835Z" fill="#2058BB"/>
<path d="M87.3772 20.7036H83.7309V15.9206H87.2576C88.4544 15.9206 89.3613 16.1128 89.9524 16.4918C90.5285 16.8611 90.8085 17.4448 90.8085 18.2762C90.8085 19.9096 89.6861 20.7036 87.3772 20.7036ZM83.7309 8.84588H86.445C87.7053 8.84588 88.651 8.98733 89.2555 9.26651C89.8261 9.53032 90.1035 10.0577 90.1035 10.8789C90.1035 11.2605 90.0108 11.6099 89.8245 11.923C89.5877 12.3595 89.256 12.6468 88.8107 12.8015C88.3479 12.9619 87.6766 13.0434 86.8156 13.0434H83.7309V8.84588ZM91.545 14.2328C93.1165 13.3873 93.9127 12.1038 93.9127 10.4127C93.9127 9.88543 93.8247 9.37791 93.6517 8.90406C93.4787 8.43021 93.2238 7.99127 92.8937 7.59934C92.5655 7.20898 92.1816 6.88145 91.7535 6.62588C91.2517 6.32207 90.6773 6.1135 90.046 6.00662C89.4267 5.90211 88.6855 5.84912 87.8431 5.84912H82.1666C81.3678 5.84912 80.7754 6.03656 80.4064 6.40556C80.0369 6.77502 79.8496 7.37518 79.8496 8.19001V23.7004H87.5207C88.4483 23.7004 89.2718 23.6535 89.968 23.5613C90.6719 23.4688 91.3055 23.306 91.8537 23.0768C92.7326 22.6909 93.4409 22.0847 93.9582 21.2757C94.4751 20.4675 94.7375 19.5469 94.7375 18.5392C94.7375 16.4689 93.6641 15.0218 91.545 14.2328Z" fill="#2058BB"/>
<path d="M68.4368 9.99934L68.4582 10.0582L68.4798 9.99934L70.8295 16.55H66.0869L68.4368 9.99934ZM65.0425 19.5345H71.874L73.4036 23.6713H77.4219L76.3058 20.8493C76.2508 20.7047 76.1908 20.5507 76.1213 20.3785L71.2002 7.87662C71.0182 7.41147 70.8205 7.0184 70.6122 6.70815C70.3967 6.38671 70.1097 6.12301 69.7592 5.9245C69.4061 5.72475 68.9686 5.6234 68.4582 5.62329C67.9479 5.6234 67.5104 5.72475 67.1573 5.9245C66.8069 6.12301 66.5199 6.38671 66.3043 6.70815C66.096 7.0184 65.8983 7.41147 65.7164 7.87662L60.7953 20.3785C60.7258 20.5507 60.6658 20.7047 60.6107 20.8493L59.4946 23.6713H63.513L65.0425 19.5345Z" fill="#2058BB"/>
<path d="M104.618 20.7036H100.972V15.9206H104.499C105.696 15.9206 106.602 16.1128 107.194 16.4918C107.77 16.8611 108.05 17.4448 108.05 18.2762C108.05 19.9096 106.927 20.7036 104.618 20.7036ZM100.972 8.84588H103.686C104.946 8.84588 105.892 8.98733 106.497 9.26651C107.067 9.53032 107.345 10.0577 107.345 10.8789C107.345 11.2605 107.252 11.6099 107.066 11.923C106.829 12.3595 106.497 12.6468 106.052 12.8015C105.589 12.9619 104.918 13.0434 104.057 13.0434H100.972V8.84588ZM108.786 14.2328C110.358 13.3873 111.154 12.1038 111.154 10.4127C111.154 9.88543 111.066 9.37791 110.893 8.90406C110.72 8.43021 110.465 7.99127 110.135 7.59934C109.807 7.20898 109.423 6.88145 108.995 6.62588C108.493 6.32207 107.919 6.1135 107.287 6.00662C106.668 5.90211 105.927 5.84912 105.084 5.84912H99.4077C98.6091 5.84912 98.0167 6.03656 97.6476 6.40556C97.2781 6.77502 97.0909 7.37518 97.0909 8.19001V23.7004H104.762C105.69 23.7004 106.513 23.6535 107.209 23.5613C107.913 23.4688 108.547 23.306 109.095 23.0768C109.974 22.6909 110.682 22.0847 111.2 21.2757C111.716 20.4675 111.979 19.5469 111.979 18.5392C111.979 16.4689 110.905 15.0218 108.786 14.2328Z" fill="#2058BB"/>
<path d="M61.185 40.0041V33.6652H67.0019C69.67 33.6652 71.0041 34.7755 71.0041 36.9962C71.0041 37.4105 70.9212 37.8 70.7555 38.1645C70.5898 38.5291 70.3412 38.8523 70.0097 39.134C69.6783 39.3992 69.264 39.6146 68.7668 39.7803C68.2696 39.9295 67.6813 40.0041 67.0019 40.0041H61.185ZM59.4946 32.2234V49.9723H67.0019C67.9631 49.9723 68.7834 49.8894 69.4629 49.7237C70.1589 49.5414 70.7389 49.3177 71.2029 49.0525C71.6835 48.7708 72.0647 48.4476 72.3464 48.0831C72.6282 47.7185 72.8436 47.3539 72.9927 46.9893C73.1419 46.6081 73.2413 46.2435 73.291 45.8955C73.3408 45.5309 73.3656 45.2078 73.3656 44.926C73.3656 43.766 73.0259 42.7965 72.3464 42.0176C71.667 41.2221 70.7555 40.7498 69.612 40.6007V40.551C70.076 40.4515 70.4903 40.2775 70.8549 40.0289C71.2361 39.7803 71.5592 39.482 71.8244 39.134C72.1061 38.7694 72.3216 38.3717 72.4707 37.9408C72.6199 37.4934 72.6944 37.0376 72.6944 36.5736C72.6944 35.745 72.537 35.0572 72.2221 34.5104C71.9073 33.9469 71.4847 33.4995 70.9544 33.168C70.4406 32.82 69.8357 32.5797 69.1397 32.4471C68.4602 32.298 67.7476 32.2234 67.0019 32.2234H59.4946ZM61.185 48.5305V41.4459H67.0019C68.5099 41.4459 69.6617 41.7359 70.4572 42.3159C71.2692 42.8794 71.6753 43.7328 71.6753 44.8763C71.6753 45.5889 71.551 46.1855 71.3024 46.6661C71.0538 47.1301 70.7141 47.503 70.2832 47.7848C69.8523 48.0665 69.3551 48.2654 68.7917 48.3814C68.2282 48.4808 67.6316 48.5305 67.0019 48.5305H61.185Z" fill="#2058BB"/>
<path d="M87.4104 49.9723V37.1454H85.8444V43.882C85.8444 44.5283 85.7698 45.1663 85.6206 45.7961C85.4715 46.4093 85.2395 46.9561 84.9246 47.4367C84.6097 47.9173 84.212 48.3068 83.7314 48.6051C83.2508 48.8868 82.6708 49.0277 81.9913 49.0277C80.7484 49.0277 79.87 48.7294 79.3563 48.1328C78.8591 47.5362 78.594 46.6578 78.5608 45.4978V37.1454H76.9948V45.4729C76.9948 46.2352 77.0776 46.9147 77.2433 47.5113C77.4091 48.1079 77.6659 48.6134 78.014 49.0277C78.3785 49.442 78.8426 49.7569 79.406 49.9723C79.9861 50.2043 80.6821 50.3203 81.4941 50.3203C82.4553 50.3203 83.3254 50.0966 84.1043 49.6491C84.8997 49.1851 85.5046 48.5222 85.9189 47.6605H85.9686V49.9723H87.4104Z" fill="#2058BB"/>
<path d="M99.2955 40.899H100.862C100.828 40.2029 100.688 39.5981 100.439 39.0843C100.19 38.5706 99.8506 38.1397 99.4198 37.7917C99.0055 37.4437 98.5166 37.1868 97.9531 37.0211C97.4062 36.8553 96.8096 36.7725 96.1633 36.7725C95.5999 36.7725 95.0281 36.8388 94.4481 36.9713C93.8846 37.1039 93.3709 37.3111 92.9069 37.5928C92.4428 37.8745 92.0617 38.2474 91.7634 38.7114C91.4816 39.1755 91.3408 39.7306 91.3408 40.3769C91.3408 40.9238 91.4319 41.3879 91.6142 41.769C91.7965 42.1336 92.0451 42.4485 92.36 42.7136C92.6914 42.9622 93.0726 43.1777 93.5035 43.36C93.9343 43.5257 94.4067 43.6748 94.9204 43.8074L96.9339 44.2549C97.2819 44.3377 97.6217 44.4372 97.9531 44.5532C98.3011 44.6692 98.6077 44.8183 98.8729 45.0006C99.138 45.1663 99.3452 45.3818 99.4943 45.6469C99.6601 45.8955 99.7429 46.2104 99.7429 46.5916C99.7429 47.039 99.6269 47.4202 99.3949 47.735C99.1795 48.0333 98.8977 48.2819 98.5497 48.4808C98.2017 48.6797 97.8205 48.8205 97.4062 48.9034C97.0085 48.9862 96.619 49.0277 96.2379 49.0277C95.1938 49.0277 94.3155 48.7625 93.6029 48.2322C92.9069 47.6853 92.5257 46.8816 92.4594 45.8209H90.8933C91.0259 47.3953 91.5562 48.5388 92.4843 49.2514C93.4289 49.964 94.6552 50.3203 96.1633 50.3203C96.7599 50.3203 97.3648 50.254 97.978 50.1214C98.5911 49.9889 99.138 49.7734 99.6186 49.4751C100.116 49.1603 100.522 48.7625 100.837 48.2819C101.152 47.7848 101.309 47.1882 101.309 46.4921C101.309 45.9287 101.201 45.4398 100.986 45.0255C100.77 44.6112 100.489 44.2631 100.141 43.9814C99.8092 43.6997 99.4198 43.476 98.9723 43.3102C98.5414 43.1279 98.1023 43.0037 97.6548 42.9374L95.5667 42.4651C95.3016 42.3988 95.0115 42.3159 94.6967 42.2165C94.3818 42.1005 94.0918 41.9596 93.8266 41.7939C93.5615 41.6282 93.3377 41.4293 93.1554 41.1973C92.9897 40.9487 92.9069 40.6504 92.9069 40.3024C92.9069 39.8881 92.998 39.54 93.1803 39.2583C93.3626 38.9766 93.6029 38.7529 93.9012 38.5871C94.1995 38.4048 94.5227 38.2806 94.8707 38.2143C95.2353 38.1314 95.5916 38.09 95.9396 38.09C96.387 38.09 96.8096 38.148 97.2074 38.264C97.6051 38.3634 97.9531 38.5291 98.2514 38.7612C98.5663 38.9932 98.8149 39.2915 98.9972 39.6561C99.1795 40.0041 99.2789 40.4184 99.2955 40.899Z" fill="#2058BB"/>
<path d="M104.85 32.2234V34.7341H106.416V32.2234H104.85ZM104.85 37.1454V49.9723H106.416V37.1454H104.85Z" fill="#2058BB"/>
<path d="M110.631 37.1454V49.9723H112.197V42.4899C112.214 41.8602 112.313 41.2801 112.496 40.7498C112.695 40.2029 112.96 39.7389 113.291 39.3578C113.639 38.96 114.053 38.6534 114.534 38.438C115.031 38.206 115.595 38.09 116.224 38.09C116.854 38.09 117.376 38.1894 117.791 38.3883C118.221 38.5871 118.561 38.8606 118.81 39.2086C119.058 39.5566 119.232 39.9709 119.332 40.4515C119.431 40.9155 119.481 41.421 119.481 41.9679V49.9723H121.047V41.7193C121.047 40.957 120.972 40.2692 120.823 39.6561C120.674 39.0429 120.417 38.5291 120.053 38.1148C119.688 37.684 119.199 37.3525 118.586 37.1205C117.989 36.8885 117.244 36.7725 116.349 36.7725C115.437 36.7725 114.6 37.0128 113.838 37.4934C113.076 37.9574 112.545 38.5789 112.247 39.3578H112.197V37.1454H110.631Z" fill="#2058BB"/>
<path d="M134.473 42.6639H126.171C126.237 42.0839 126.369 41.5204 126.568 40.9735C126.784 40.4101 127.065 39.9212 127.413 39.5069C127.761 39.076 128.184 38.7363 128.681 38.4877C129.178 38.2226 129.75 38.09 130.396 38.09C131.026 38.09 131.59 38.2226 132.087 38.4877C132.584 38.7363 133.007 39.076 133.355 39.5069C133.703 39.9212 133.968 40.4018 134.15 40.9487C134.349 41.4956 134.457 42.0673 134.473 42.6639ZM126.171 43.9814H136.039C136.072 43.0865 135.99 42.2082 135.791 41.3464C135.592 40.4681 135.26 39.6975 134.796 39.0346C134.349 38.3551 133.761 37.8082 133.031 37.3939C132.302 36.9796 131.424 36.7725 130.396 36.7725C129.386 36.7725 128.507 36.9713 127.761 37.3691C127.032 37.7502 126.436 38.264 125.972 38.9103C125.508 39.54 125.16 40.2609 124.928 41.073C124.712 41.885 124.604 42.7136 124.604 43.5588C124.604 44.4703 124.712 45.3403 124.928 46.169C125.16 46.981 125.508 47.7019 125.972 48.3316C126.436 48.9448 127.032 49.4337 127.761 49.7983C128.507 50.1463 129.386 50.3203 130.396 50.3203C132.021 50.3203 133.272 49.9226 134.15 49.1271C135.045 48.3316 135.658 47.2047 135.99 45.7464H134.424C134.175 46.7407 133.727 47.5362 133.081 48.1328C132.435 48.7294 131.54 49.0277 130.396 49.0277C129.651 49.0277 129.013 48.8702 128.482 48.5554C127.952 48.2405 127.513 47.8428 127.165 47.3622C126.817 46.8816 126.56 46.343 126.394 45.7464C126.245 45.1332 126.171 44.5449 126.171 43.9814Z" fill="#2058BB"/>
<path d="M147.065 40.899H148.631C148.598 40.2029 148.457 39.5981 148.209 39.0843C147.96 38.5706 147.621 38.1397 147.19 37.7917C146.775 37.4437 146.286 37.1868 145.723 37.0211C145.176 36.8553 144.58 36.7725 143.933 36.7725C143.37 36.7725 142.798 36.8388 142.218 36.9713C141.655 37.1039 141.141 37.3111 140.677 37.5928C140.213 37.8745 139.832 38.2474 139.533 38.7114C139.252 39.1755 139.111 39.7306 139.111 40.3769C139.111 40.9238 139.202 41.3879 139.384 41.769C139.566 42.1336 139.815 42.4485 140.13 42.7136C140.461 42.9622 140.842 43.1777 141.273 43.36C141.704 43.5257 142.177 43.6748 142.69 43.8074L144.704 44.2549C145.052 44.3377 145.392 44.4372 145.723 44.5532C146.071 44.6692 146.378 44.8183 146.643 45.0006C146.908 45.1663 147.115 45.3818 147.264 45.6469C147.43 45.8955 147.513 46.2104 147.513 46.5916C147.513 47.039 147.397 47.4202 147.165 47.735C146.949 48.0333 146.668 48.2819 146.32 48.4808C145.972 48.6797 145.59 48.8205 145.176 48.9034C144.778 48.9862 144.389 49.0277 144.008 49.0277C142.964 49.0277 142.085 48.7625 141.373 48.2322C140.677 47.6853 140.296 46.8816 140.229 45.8209H138.663C138.796 47.3953 139.326 48.5388 140.254 49.2514C141.199 49.964 142.425 50.3203 143.933 50.3203C144.53 50.3203 145.135 50.254 145.748 50.1214C146.361 49.9889 146.908 49.7734 147.389 49.4751C147.886 49.1603 148.292 48.7625 148.607 48.2819C148.921 47.7848 149.079 47.1882 149.079 46.4921C149.079 45.9287 148.971 45.4398 148.756 45.0255C148.54 44.6112 148.259 44.2631 147.911 43.9814C147.579 43.6997 147.19 43.476 146.742 43.3102C146.311 43.1279 145.872 43.0037 145.425 42.9374L143.337 42.4651C143.071 42.3988 142.781 42.3159 142.467 42.2165C142.152 42.1005 141.862 41.9596 141.597 41.7939C141.331 41.6282 141.108 41.4293 140.925 41.1973C140.76 40.9487 140.677 40.6504 140.677 40.3024C140.677 39.8881 140.768 39.54 140.95 39.2583C141.132 38.9766 141.373 38.7529 141.671 38.5871C141.969 38.4048 142.293 38.2806 142.641 38.2143C143.005 38.1314 143.361 38.09 143.709 38.09C144.157 38.09 144.58 38.148 144.977 38.264C145.375 38.3634 145.723 38.5291 146.021 38.7612C146.336 38.9932 146.585 39.2915 146.767 39.6561C146.949 40.0041 147.049 40.4184 147.065 40.899Z" fill="#2058BB"/>
<path d="M160.276 40.899H161.842C161.809 40.2029 161.668 39.5981 161.42 39.0843C161.171 38.5706 160.831 38.1397 160.401 37.7917C159.986 37.4437 159.497 37.1868 158.934 37.0211C158.387 36.8553 157.79 36.7725 157.144 36.7725C156.581 36.7725 156.009 36.8388 155.429 36.9713C154.865 37.1039 154.352 37.3111 153.888 37.5928C153.424 37.8745 153.042 38.2474 152.744 38.7114C152.462 39.1755 152.322 39.7306 152.322 40.3769C152.322 40.9238 152.413 41.3879 152.595 41.769C152.777 42.1336 153.026 42.4485 153.341 42.7136C153.672 42.9622 154.053 43.1777 154.484 43.36C154.915 43.5257 155.387 43.6748 155.901 43.8074L157.915 44.2549C158.263 44.3377 158.602 44.4372 158.934 44.5532C159.282 44.6692 159.589 44.8183 159.854 45.0006C160.119 45.1663 160.326 45.3818 160.475 45.6469C160.641 45.8955 160.724 46.2104 160.724 46.5916C160.724 47.039 160.608 47.4202 160.376 47.735C160.16 48.0333 159.879 48.2819 159.531 48.4808C159.182 48.6797 158.801 48.8205 158.387 48.9034C157.989 48.9862 157.6 49.0277 157.219 49.0277C156.175 49.0277 155.296 48.7625 154.584 48.2322C153.888 47.6853 153.506 46.8816 153.44 45.8209H151.874C152.007 47.3953 152.537 48.5388 153.465 49.2514C154.41 49.964 155.636 50.3203 157.144 50.3203C157.741 50.3203 158.346 50.254 158.959 50.1214C159.572 49.9889 160.119 49.7734 160.599 49.4751C161.097 49.1603 161.503 48.7625 161.817 48.2819C162.132 47.7848 162.29 47.1882 162.29 46.4921C162.29 45.9287 162.182 45.4398 161.967 45.0255C161.751 44.6112 161.469 44.2631 161.121 43.9814C160.79 43.6997 160.401 43.476 159.953 43.3102C159.522 43.1279 159.083 43.0037 158.636 42.9374L156.548 42.4651C156.282 42.3988 155.992 42.3159 155.677 42.2165C155.363 42.1005 155.073 41.9596 154.807 41.7939C154.542 41.6282 154.319 41.4293 154.136 41.1973C153.971 40.9487 153.888 40.6504 153.888 40.3024C153.888 39.8881 153.979 39.54 154.161 39.2583C154.343 38.9766 154.584 38.7529 154.882 38.5871C155.18 38.4048 155.503 38.2806 155.851 38.2143C156.216 38.1314 156.572 38.09 156.92 38.09C157.368 38.09 157.79 38.148 158.188 38.264C158.586 38.3634 158.934 38.5291 159.232 38.7612C159.547 38.9932 159.796 39.2915 159.978 39.6561C160.16 40.0041 160.26 40.4184 160.276 40.899Z" fill="#2058BB"/>
</svg>
