<svg width="80" height="80" viewBox="0 0 80 80" fill="none" xmlns="http://www.w3.org/2000/svg">
<path d="M15.0185 39.9999C10.5301 32.7419 8.12767 24.1541 9.74227 15.4533C10.2931 12.4855 12.6745 10.1799 15.6563 9.7103C18.3241 9.2899 20.2525 9.0793 24.0313 9.3933C22.6695 11.6541 21.8639 13.9089 21.0167 16.1003C19.1293 16.0317 17.2065 16.4093 16.5975 16.5971C15.0639 22.2657 17.0429 31.9707 23.0217 39.9999H15.0185Z" fill="#2058BB"/>
<path d="M22.3349 22.3354C24.2933 14.0294 28.6671 6.25804 35.9611 1.24744C38.4493 -0.461755 41.7635 -0.407955 44.2041 1.36825C46.3877 2.95744 47.9001 4.17224 50.3503 7.06624C47.7887 7.70184 45.6245 8.72664 43.4759 9.67724C42.1897 8.29404 40.5633 7.20145 39.9997 6.90365C34.9071 9.82744 29.4439 18.0896 27.9941 27.9946L22.3349 22.3354Z" fill="#2058BB"/>
<path d="M39.9993 15.0185C47.2575 10.5301 55.8451 8.12751 64.5459 9.74211C67.5139 10.2929 69.8193 12.6743 70.2891 15.6561C70.7093 18.3239 70.9199 20.2523 70.6061 24.0313C68.3453 22.6695 66.0905 21.8639 63.8991 21.0165C63.9675 19.1293 63.5901 17.2065 63.4021 16.5975C57.7335 15.0639 48.0283 17.0429 39.9993 23.0217V15.0185Z" fill="#2058BB"/>
<path d="M57.6645 22.335C65.9705 24.2934 73.7417 28.667 78.7523 35.9612C80.4617 38.4492 80.4079 41.7634 78.6317 44.2042C77.0425 46.3878 75.8277 47.9002 72.9337 50.3504C72.2979 47.7888 71.2733 45.6246 70.3227 43.476C71.7059 42.1898 72.7983 40.5634 73.0963 39.9998C70.1723 34.907 61.9103 29.444 52.0053 27.9942L57.6645 22.335Z" fill="#2058BB"/>
<path d="M64.9818 39.9992C69.4702 47.2572 71.8726 55.845 70.258 64.5458C69.7072 67.5138 67.3258 69.8192 64.344 70.289C61.6762 70.7092 59.7478 70.92 55.969 70.6058C57.3306 68.3452 58.1362 66.0904 58.9836 63.8988C60.871 63.9674 62.7938 63.5898 63.4028 63.4022C64.9362 57.7334 62.9574 48.0284 56.9784 39.9992H64.9818Z" fill="#2058BB"/>
<path d="M57.6647 57.6646C55.7061 65.9706 51.3325 73.7418 44.0383 78.7524C41.5503 80.4618 38.2361 80.408 35.7955 78.6318C33.6119 77.0426 32.0995 75.8278 29.6493 72.9338C32.2109 72.298 34.3749 71.2734 36.5235 70.3228C37.8099 71.7058 39.4363 72.7984 39.9999 73.0964C45.0925 70.1724 50.5557 61.9104 52.0055 52.0054L57.6647 57.6646Z" fill="#2058BB"/>
<path d="M39.9997 64.9815C32.7415 69.4699 24.1539 71.8723 15.4531 70.2579C12.4852 69.7071 10.1798 67.3257 9.70995 64.3439C9.28975 61.6762 9.07895 59.7476 9.39295 55.9688C11.654 57.3306 13.9086 58.1362 16.1 58.9834C16.0316 60.8708 16.4092 62.7935 16.597 63.4025C22.2655 64.9361 31.9705 62.9571 39.9997 56.9782V64.9815Z" fill="#2058BB"/>
<path d="M22.3355 57.6647C14.0295 55.7063 6.25834 51.3327 1.24754 44.0385C-0.461656 41.5505 -0.407856 38.2361 1.36854 35.7955C2.95754 33.6119 4.17234 32.0995 7.06654 29.6493C7.70214 32.2109 8.72674 34.3751 9.67734 36.5237C8.29414 37.8099 7.20174 39.4363 6.90374 39.9999C9.82754 45.0927 18.0897 50.5557 27.9947 52.0055L22.3355 57.6647Z" fill="#2058BB"/>
</svg>
